<?xml version="1.0" standalone="no"?>
<!DOCTYPE svg PUBLIC "-//W3C//DTD SVG 20010904//EN"
 "http://www.w3.org/TR/2001/REC-SVG-20010904/DTD/svg10.dtd">
<svg version="1.0" xmlns="http://www.w3.org/2000/svg"
 width="226.000000pt" height="226.000000pt" viewBox="0 0 226.000000 226.000000"
 preserveAspectRatio="xMidYMid meet">
<metadata>
Created by potrace 1.14, written by Peter Selinger 2001-2017
</metadata>
<g transform="translate(0.000000,226.000000) scale(0.100000,-0.100000)"
fill="#000000" stroke="none">
<path d="M966 2123 c7 -59 35 -113 59 -113 34 0 28 85 -7 96 -13 4 -18 12 -15
24 6 22 -10 50 -28 50 -12 0 -13 -11 -9 -57z m21 10 c-3 -10 -5 -4 -5 12 0 17
2 24 5 18 2 -7 2 -21 0 -30z m29 -41 c5 1 10 -14 12 -34 4 -44 -15 -52 -24
-10 -3 15 -8 36 -11 47 -3 14 -2 16 5 7 5 -8 13 -12 18 -10z"/>
<path d="M1077 2158 c-22 -16 -29 -55 -16 -79 12 -23 37 -25 45 -4 4 8 12 15
19 15 16 0 27 27 14 35 -5 4 -8 3 -7 -2 2 -4 -1 -10 -7 -13 -5 -3 -12 6 -13
20 -5 34 -15 42 -35 28z m22 -70 c1 -10 -3 -18 -9 -18 -13 0 -24 46 -15 67 7
16 9 15 15 -7 5 -14 8 -33 9 -42z"/>
<path d="M946 2014 c4 -34 2 -54 -5 -58 -12 -8 -14 6 -13 64 l1 35 -13 -28
c-15 -33 -9 -87 9 -87 8 0 20 7 29 15 8 8 19 15 24 15 6 0 13 7 16 16 5 14 4
15 -9 4 -12 -10 -15 -10 -16 1 -1 30 -8 52 -19 63 -8 8 -10 -2 -4 -40z"/>
<path d="M860 1978 c1 -33 37 -75 52 -60 9 9 9 12 0 12 -6 0 -18 16 -26 35
-17 40 -26 45 -26 13z"/>
<path d="M787 1933 c-11 -11 -8 -58 5 -71 7 -7 19 -12 27 -12 11 0 12 3 4 8
-17 10 -34 60 -23 67 4 3 10 -1 13 -7 2 -7 8 -10 12 -6 4 4 4 11 0 17 -7 12
-28 14 -38 4z"/>
<path d="M867 1910 c3 -12 0 -20 -6 -20 -7 0 -9 5 -6 10 3 6 1 10 -4 10 -6 0
-11 -9 -11 -20 0 -18 3 -19 20 -10 20 11 28 50 11 50 -5 0 -7 -9 -4 -20z"/>
<path d="M719 1873 c0 -10 -1 -38 0 -63 0 -44 0 -44 -9 -11 -10 42 -29 55 -51
35 -21 -19 -29 -18 -29 6 0 30 -41 10 -57 -28 -11 -27 -10 -33 8 -56 16 -20
19 -34 14 -57 -5 -21 -4 -29 3 -25 6 3 13 25 17 48 6 33 9 38 17 25 5 -10 21
-29 35 -45 15 -15 23 -22 19 -15 -3 7 -9 29 -11 50 -3 21 -7 50 -9 66 -3 18 0
27 10 27 8 0 15 -8 15 -17 1 -10 2 -25 3 -33 0 -8 -3 -18 -9 -22 -6 -5 -4 -8
6 -8 20 0 39 20 39 42 0 10 5 15 13 13 26 -10 40 11 33 49 -6 30 -11 36 -31
36 -17 0 -25 -6 -26 -17z m42 -13 c4 -33 3 -44 -7 -47 -12 -4 -26 35 -18 49 7
11 24 10 25 -2z m-142 -82 c-22 -41 -46 -9 -29 38 l12 29 13 -25 c9 -17 10
-30 4 -42z m28 10 c-3 -8 -6 -5 -6 6 -1 11 2 17 5 13 3 -3 4 -12 1 -19z"/>
<path d="M1342 1748 c-20 -20 -14 -56 12 -73 22 -15 23 -19 14 -48 -14 -41
-21 -45 -78 -45 -27 -1 -65 -8 -85 -16 -41 -18 -56 -20 -53 -8 2 8 -19 78 -34
108 -19 41 -122 73 -191 60 -43 -8 -84 -42 -92 -78 -6 -22 -11 -26 -33 -21
-74 14 -117 8 -162 -23 -77 -51 -102 -119 -72 -195 16 -39 97 -104 184 -145
l77 -37 -35 -41 c-37 -44 -54 -91 -61 -176 -2 -30 -8 -59 -13 -66 -6 -6 -7
-14 -3 -17 3 -4 0 -13 -7 -22 -10 -12 -9 -15 6 -16 11 -1 28 -3 39 -4 28 -5
153 -16 200 -19 51 -3 100 19 148 65 20 21 37 36 37 34 0 -1 -7 -22 -15 -45
-34 -95 -9 -227 54 -289 41 -40 117 -71 171 -71 19 0 55 11 79 25 45 26 71 32
71 15 0 -21 41 -50 70 -50 39 0 66 42 69 107 1 45 35 133 50 133 14 0 41 59
45 99 7 69 -52 153 -126 181 -65 24 -128 54 -128 60 0 4 9 15 19 24 31 28 62
112 62 169 1 61 -26 129 -70 179 l-30 35 29 31 c16 18 33 32 39 32 18 0 39 30
34 49 -3 11 -15 27 -28 35 -20 13 -25 13 -45 -1 -18 -13 -21 -22 -16 -53 4
-28 1 -44 -12 -59 -15 -19 -20 -20 -50 -9 -30 11 -32 16 -27 46 3 18 12 49 20
69 8 19 15 43 15 53 0 29 -55 41 -78 18z"/>
<path d="M467 1685 c-19 -18 -23 -75 -7 -91 8 -8 6 -15 -4 -23 -19 -16 -31 3
-28 49 l1 35 -10 -33 c-9 -29 -12 -32 -25 -21 -14 11 -15 8 -9 -32 5 -35 3
-48 -9 -58 -23 -19 -28 -10 -14 27 15 39 -1 64 -27 42 -12 -10 -14 -24 -9 -61
5 -40 4 -50 -10 -55 -21 -8 -24 -5 -32 34 -4 22 -3 32 5 32 7 0 10 -4 6 -9 -3
-5 0 -13 6 -16 7 -5 10 0 7 11 -5 26 -34 30 -41 5 -7 -29 3 -69 20 -75 8 -3
25 5 39 19 14 14 28 25 33 25 4 0 17 10 29 23 15 16 19 30 15 47 -6 24 -6 24
11 8 21 -22 25 -22 46 -3 13 12 16 27 12 67 -3 37 -2 49 7 44 6 -4 11 -26 12
-49 0 -23 3 -35 7 -27 4 8 14 15 22 15 8 0 15 9 16 20 1 15 0 16 -3 3 -6 -26
-23 -22 -23 5 0 13 -6 31 -13 41 -13 17 -14 17 -30 1z m-114 -118 c3 -8 1 -20
-4 -28 -6 -10 -9 -7 -9 14 0 29 5 35 13 14z"/>
<path d="M217 1487 c-20 -15 -28 -58 -17 -94 5 -15 9 -22 9 -15 1 7 6 10 13 6
8 -5 9 -2 3 12 -14 34 -17 71 -6 78 7 4 12 -1 12 -13 1 -12 2 -27 3 -33 1 -17
39 -17 42 0 1 7 0 8 -3 2 -9 -18 -23 0 -23 30 0 34 -11 44 -33 27z"/>
<path d="M140 1426 c0 -9 -5 -16 -11 -16 -14 0 -5 -68 11 -84 7 -7 8 4 4 36
-4 25 -2 48 3 51 5 3 10 -6 11 -21 1 -14 8 -29 14 -33 18 -11 18 -7 4 36 -14
40 -36 59 -36 31z"/>
<path d="M2088 869 c-14 -8 -18 -23 -18 -64 0 -53 -10 -72 -30 -60 -6 4 -4 14
5 28 9 15 11 27 5 37 -8 12 -10 9 -10 -12 0 -16 -4 -28 -9 -28 -5 0 -8 11 -5
25 3 16 0 25 -8 25 -8 1 -5 7 7 17 18 14 18 15 2 9 -10 -3 -20 -6 -21 -6 -4 0
3 -70 10 -102 10 -44 -11 -32 -27 15 l-14 42 -5 -60 -5 -60 -17 38 c-9 20 -19
37 -23 37 -3 0 -2 -25 1 -55 6 -51 5 -55 -12 -49 -15 6 -17 4 -7 -6 13 -15 33
-5 33 17 0 9 6 13 15 9 11 -4 17 3 22 24 5 27 7 29 18 13 12 -15 14 -15 26 5
8 12 19 22 26 22 7 0 18 9 25 20 7 11 20 20 28 20 10 0 11 3 4 8 -12 7 -17 31
-15 65 2 31 19 9 24 -30 2 -21 9 -53 16 -72 6 -19 7 -30 2 -25 -5 5 -11 18
-14 29 -4 16 -5 14 -6 -6 -1 -33 26 -60 35 -35 3 9 3 31 0 50 -4 18 -2 46 4
62 9 26 9 27 -4 11 -13 -16 -14 -15 -20 18 -7 38 -11 40 -38 24z"/>
<path d="M636 855 c-6 -18 29 -41 39 -25 10 16 -2 40 -19 40 -7 0 -16 -7 -20
-15z"/>
<path d="M557 813 c-13 -13 -7 -31 12 -36 20 -5 36 17 25 34 -6 11 -28 12 -37
2z"/>
<path d="M510 717 c0 -18 5 -25 18 -23 9 2 17 11 17 22 0 10 -8 20 -17 22 -13
3 -18 -3 -18 -21z"/>
<path d="M1790 665 c-11 -13 -10 -14 4 -9 9 3 16 10 16 15 0 13 -6 11 -20 -6z"/>
<path d="M1822 617 c2 -33 6 -43 20 -44 10 -1 21 3 24 9 4 7 2 8 -4 4 -7 -4
-13 7 -18 29 -9 51 -24 53 -22 2z"/>
<path d="M517 643 c-12 -12 -7 -31 10 -37 19 -8 34 10 26 31 -5 14 -25 17 -36
6z"/>
<path d="M1786 580 c4 -33 3 -50 -4 -50 -6 0 -12 14 -14 32 -2 17 -8 33 -15
35 -9 3 -10 -4 -4 -24 4 -15 4 -39 1 -53 -8 -27 -12 -21 -26 35 -6 26 -8 27
-11 9 -2 -12 0 -37 4 -55 l9 -33 22 22 c12 12 25 22 28 22 3 0 17 9 31 20 14
11 21 20 15 20 -6 0 -14 16 -18 35 -10 55 -26 42 -18 -15z"/>
<path d="M570 560 c-7 -4 -9 -13 -6 -19 10 -16 46 -14 46 3 0 17 -23 27 -40
16z"/>
<path d="M1675 512 c-7 -34 -8 -35 -16 -14 -13 34 -22 26 -15 -13 8 -42 0 -75
-19 -75 -12 0 -25 30 -25 60 1 11 4 10 15 -4 15 -19 15 -19 15 2 0 15 -6 22
-20 22 -24 0 -29 -22 -17 -82 3 -15 2 -30 -3 -33 -9 -6 -20 18 -20 45 0 10 -5
22 -10 25 -7 5 -10 -9 -8 -37 2 -32 7 -45 18 -45 20 0 41 17 34 28 -3 5 3 9
13 9 24 0 56 38 49 57 -5 12 0 13 27 8 29 -6 30 -6 13 7 -13 11 -17 23 -14 42
3 14 2 29 -2 31 -4 3 -11 -12 -15 -33z"/>
<path d="M1520 455 c-11 -13 -10 -14 4 -9 9 3 16 10 16 15 0 13 -6 11 -20 -6z"/>
<path d="M1516 371 c4 -34 3 -51 -4 -51 -6 0 -12 15 -14 33 -2 24 -8 32 -23
32 -24 0 -41 -41 -31 -79 7 -28 33 -35 42 -11 4 8 10 15 15 15 6 0 21 7 34 16
22 14 23 18 10 31 -8 8 -15 23 -15 33 0 10 -5 22 -10 25 -8 5 -9 -10 -4 -44z
m-34 -23 c5 -31 -2 -59 -13 -53 -12 8 -12 75 0 75 5 0 10 -10 13 -22z"/>
<path d="M1395 313 c7 -18 13 -40 14 -55 1 -12 41 -9 41 3 0 5 -4 8 -9 5 -10
-7 -21 17 -21 45 0 11 -7 19 -16 19 -11 0 -14 -5 -9 -17z"/>
<path d="M1360 300 c-10 -6 -11 -10 -2 -10 6 0 12 -10 12 -23 0 -13 7 -32 16
-43 14 -17 15 -17 10 -1 -3 10 -6 34 -6 53 0 36 -5 40 -30 24z"/>
<path d="M1335 258 c3 -13 7 -36 11 -52 9 -40 -11 -25 -26 19 -17 51 -25 43
-22 -21 3 -39 1 -54 -7 -50 -6 4 -11 1 -11 -6 0 -12 -10 4 -47 75 -8 15 -18
27 -23 27 -5 0 -10 -31 -12 -68 -2 -54 1 -73 14 -86 16 -17 16 -17 11 3 -6 23
27 58 37 41 3 -5 16 -7 28 -3 15 4 22 13 23 32 0 14 3 20 6 14 2 -7 11 -13 18
-13 15 0 38 34 29 43 -3 3 -6 19 -6 36 -1 18 -6 31 -14 31 -8 0 -11 -9 -9 -22z
m-97 -97 c-6 -30 -23 -19 -24 15 0 33 1 35 13 18 7 -10 12 -25 11 -33z"/>
</g>
</svg>
