<?xml version="1.0" standalone="no"?>
<!DOCTYPE svg PUBLIC "-//W3C//DTD SVG 20010904//EN"
 "http://www.w3.org/TR/2001/REC-SVG-20010904/DTD/svg10.dtd">
<svg version="1.0" xmlns="http://www.w3.org/2000/svg"
 width="192.000000pt" height="192.000000pt" viewBox="0 0 192.000000 192.000000"
 preserveAspectRatio="xMidYMid meet">
<metadata>
Created by potrace 1.14, written by Peter Selinger 2001-2017
</metadata>
<g transform="translate(0.000000,192.000000) scale(0.100000,-0.100000)"
fill="#000000" stroke="none">
<path d="M1296 1872 c-4 -7 -11 -10 -15 -7 -5 2 -19 -7 -31 -20 -13 -14 -19
-25 -14 -25 5 0 4 -4 -3 -8 -9 -6 -8 -15 4 -40 9 -18 18 -30 21 -27 11 11 41
-38 33 -54 -5 -9 -6 -22 -4 -28 3 -7 0 -13 -7 -13 -6 0 -9 -4 -5 -9 3 -5 1
-12 -5 -16 -6 -4 -8 -9 -6 -13 2 -4 -38 -7 -90 -7 -52 0 -94 -3 -94 -7 0 -5
-31 -20 -50 -23 -3 0 -15 -6 -28 -13 -23 -13 -28 -9 -36 30 -2 7 -6 21 -10 30
-4 9 -5 22 -1 28 3 5 0 13 -8 16 -8 3 -13 13 -10 23 2 10 -2 25 -11 33 -8 9
-12 18 -9 22 4 3 -1 6 -10 6 -9 0 -17 5 -17 10 0 6 -6 10 -14 10 -8 0 -16 4
-18 9 -2 5 -12 11 -23 13 -11 1 -22 6 -25 10 -3 4 -22 8 -43 10 -20 1 -37 6
-37 10 0 11 -23 6 -32 -7 -5 -6 -8 -6 -8 1 0 7 -12 10 -27 7 -16 -2 -34 -5
-40 -5 -7 -1 -13 -5 -13 -10 0 -5 -4 -6 -10 -3 -5 3 -10 1 -10 -5 0 -6 -4 -9
-9 -6 -9 6 -66 -47 -66 -62 0 -4 -4 -13 -9 -20 -4 -7 -6 -16 -2 -19 7 -7 -19
-33 -34 -33 -6 0 -8 5 -5 10 8 13 -18 8 -27 -5 -5 -6 -8 -6 -8 1 0 6 -10 10
-23 10 -12 -1 -28 3 -36 8 -12 9 -13 8 -6 -3 6 -11 5 -12 -6 -5 -18 11 -59 12
-59 1 0 -4 -4 -5 -10 -2 -5 3 -10 1 -10 -4 0 -6 -3 -10 -7 -10 -22 4 -37 -6
-88 -58 -53 -55 -103 -137 -97 -158 2 -5 4 -22 4 -37 1 -15 6 -28 11 -28 6 0
7 -3 4 -6 -8 -8 24 -64 35 -64 4 0 8 -6 8 -14 0 -8 9 -18 20 -21 11 -4 18 -11
15 -16 -4 -5 1 -9 10 -9 10 0 13 -5 9 -12 -4 -7 -4 -10 1 -6 4 4 37 -14 73
-40 36 -26 63 -40 58 -32 -4 8 -1 7 7 -2 8 -10 21 -18 29 -18 8 0 23 -7 34
-15 10 -8 26 -15 34 -15 8 0 24 -8 35 -16 20 -15 20 -15 1 -30 -11 -8 -16 -14
-12 -14 4 0 -4 -11 -18 -23 -14 -13 -23 -27 -20 -30 3 -3 -4 -8 -17 -12 -17
-6 -19 -9 -8 -16 12 -7 12 -9 0 -9 -8 0 -11 -6 -7 -16 4 -10 2 -13 -6 -8 -8 5
-9 2 -5 -9 4 -10 0 -20 -11 -26 -12 -7 -13 -10 -3 -11 11 0 10 -4 -2 -23 -9
-15 -12 -29 -7 -37 5 -8 4 -22 -1 -32 -5 -10 -7 -18 -4 -18 3 0 1 -9 -5 -19
-7 -14 -7 -22 0 -26 7 -4 7 -11 2 -18 -5 -7 -8 -22 -7 -34 1 -13 -3 -23 -8
-23 -6 0 -7 -3 -4 -6 3 -4 1 -16 -5 -28 -15 -27 -19 -48 -7 -41 5 3 18 1 29
-5 14 -8 20 -8 20 0 0 6 5 8 11 4 12 -7 58 -12 141 -15 32 0 56 -4 54 -8 -3
-4 4 -7 14 -7 10 0 16 4 13 9 -3 5 4 4 15 -2 14 -8 23 -8 27 -1 5 8 11 8 20 0
7 -6 17 -10 21 -9 5 1 11 0 14 -1 20 -7 39 -7 34 2 -3 5 0 8 7 7 20 -4 119 43
113 53 -3 4 0 8 6 8 16 0 90 76 82 85 -4 5 -1 5 5 1 9 -5 10 -12 3 -24 -47
-84 -52 -249 -12 -362 3 -8 6 -20 7 -25 5 -20 53 -84 59 -78 3 4 6 0 6 -8 0
-21 97 -76 165 -94 47 -12 134 -15 140 -4 4 5 13 9 21 9 9 0 22 7 31 15 8 8
19 13 24 10 5 -4 9 -1 9 4 0 6 5 11 11 11 6 0 17 7 25 15 21 20 31 19 39 -5 3
-11 11 -20 17 -20 5 0 8 -6 5 -14 -7 -18 66 -54 98 -48 26 5 74 47 76 66 0 6
3 20 5 31 3 11 7 40 9 65 10 97 13 110 28 134 9 14 28 36 42 50 14 14 23 26
19 26 -5 0 1 7 12 15 10 8 15 15 9 15 -5 0 -4 4 3 9 7 4 15 17 17 27 2 10 4
19 5 19 1 0 4 19 5 43 2 25 -1 42 -7 42 -7 0 -7 4 1 13 8 10 6 19 -9 35 -14
14 -16 22 -7 25 9 4 9 6 -1 6 -7 1 -10 6 -7 11 3 6 -1 13 -9 16 -9 3 -16 11
-16 16 0 26 -134 113 -187 121 -10 1 -41 15 -70 29 -28 15 -53 24 -57 21 -8
-8 -8 11 0 31 3 9 10 13 15 10 8 -5 13 10 10 29 -1 5 3 6 9 2 5 -3 13 2 17 12
4 10 11 21 17 25 6 4 11 13 11 20 1 7 7 27 14 43 7 17 13 38 14 48 1 9 4 17 7
17 12 0 -1 144 -13 152 -7 4 -9 8 -5 8 4 0 2 15 -4 33 -5 17 -10 37 -11 44 0
7 -4 10 -8 7 -4 -2 -10 5 -14 16 -3 11 -10 20 -15 20 -5 0 -7 7 -4 15 4 9 0
15 -10 15 -9 0 -15 4 -13 9 1 5 -11 21 -28 35 -16 14 -24 26 -17 26 7 0 11 4
8 8 -6 10 30 43 38 35 3 -4 6 -1 6 6 0 17 25 41 43 41 17 0 49 34 40 43 -3 4
-1 7 5 7 13 0 8 36 -8 55 -6 7 -24 19 -41 26 -26 10 -32 10 -40 -2 -5 -8 -9
-10 -9 -6 0 5 -7 1 -16 -7 -8 -9 -12 -21 -8 -27 4 -7 3 -9 -3 -6 -6 4 -10 -4
-10 -18 0 -14 3 -25 7 -25 19 0 18 -44 -2 -62 -12 -10 -17 -18 -13 -18 4 0 0
-8 -9 -19 -17 -18 -18 -18 -65 4 -27 13 -48 30 -48 39 0 9 3 16 7 16 4 0 7 8
7 18 -2 30 14 86 35 128 21 39 21 41 2 62 -10 12 -24 22 -30 22 -7 0 -14 5
-16 12 -3 9 -6 9 -12 0z"/>
<path d="M224 552 c-5 -4 -9 -13 -8 -19 1 -7 2 -20 3 -28 1 -16 34 -16 51 1
25 25 -17 66 -46 46z"/>
<path d="M101 477 c-24 -24 -7 -57 29 -57 14 0 31 37 25 52 -7 17 -39 20 -54
5z"/>
</g>
</svg>
